# xmcd
#
# Track frame offsets:
#	150
#	18834
#	34325
#	46640
#	66006
#	83608
#	99863
#	117137
#	133222
#	150826
#	169556
#	185157
#	196322
#	210942
#	230476
#	243554
#
# Disc length: 3443 seconds
#
# Revision: 0
# Processed by: cddbd v1.5.2PL0 Copyright (c) Steve Scherf et al.
# Submitted via: dBpowerAMP V4.0
#
DISCID=c00d7110
DTITLE=Sugar Bayou - Dance Hall Incident
DYEAR=2007
DGENRE=Country
TTITLE0=Galveston
TTITLE1=Dance With You
TTITLE2=Leavin' for Austin
TTITLE3=I Will Wait
TTITLE4=He's Just Weak
TTITLE5=Two Feet
TTITLE6=Salt Creek
TTITLE7=Jacob's Well
TTITLE8=Funny Thing About Love
TTITLE9=Forever Angel
TTITLE10=Someone Else's Dream
TTITLE11=Colorado Cajun
TTITLE12=Dreamin' of You
TTITLE13=Faith Train
TTITLE14=Deep Sadness
TTITLE15=Now That You're Gone
EXTD=
EXTT0=
EXTT1=
EXTT2=
EXTT3=
EXTT4=
EXTT5=
EXTT6=
EXTT7=
EXTT8=
EXTT9=
EXTT10=
EXTT11=
EXTT12=
EXTT13=
EXTT14=
EXTT15=
PLAYORDER=
